<svg width="152" height="18" viewBox="0 0 152 18" fill="none" xmlns="http://www.w3.org/2000/svg">
<path d="M13.3711 16.2852C13.4336 16.457 13.4648 16.5977 13.4648 16.707C13.4727 16.8086 13.4453 16.8867 13.3828 16.9414C13.3203 16.9961 13.2148 17.0312 13.0664 17.0469C12.9258 17.0625 12.7344 17.0703 12.4922 17.0703C12.25 17.0703 12.0547 17.0625 11.9062 17.0469C11.7656 17.0391 11.6562 17.0234 11.5781 17C11.5078 16.9688 11.4531 16.9297 11.4141 16.8828C11.3828 16.8359 11.3516 16.7773 11.3203 16.707L10.0195 13.0156H3.71484L2.47266 16.6602C2.44922 16.7305 2.41797 16.793 2.37891 16.8477C2.33984 16.8945 2.28125 16.9375 2.20312 16.9766C2.13281 17.0078 2.02734 17.0312 1.88672 17.0469C1.75391 17.0625 1.57812 17.0703 1.35938 17.0703C1.13281 17.0703 0.945312 17.0586 0.796875 17.0352C0.65625 17.0195 0.554688 16.9844 0.492188 16.9297C0.4375 16.875 0.410156 16.7969 0.410156 16.6953C0.417969 16.5859 0.453125 16.4453 0.515625 16.2734L5.60156 2.1875C5.63281 2.10156 5.67188 2.03125 5.71875 1.97656C5.77344 1.92187 5.84766 1.87891 5.94141 1.84766C6.04297 1.81641 6.16797 1.79688 6.31641 1.78906C6.47266 1.77344 6.66797 1.76562 6.90234 1.76562C7.15234 1.76562 7.35938 1.77344 7.52344 1.78906C7.6875 1.79688 7.82031 1.81641 7.92188 1.84766C8.02344 1.87891 8.10156 1.92578 8.15625 1.98828C8.21094 2.04297 8.25391 2.11328 8.28516 2.19922L13.3711 16.2852ZM6.84375 3.85156H6.83203L4.21875 11.4102H9.49219L6.84375 3.85156ZM27.7383 15.9336C27.7383 16.1602 27.7227 16.3398 27.6914 16.4727C27.6602 16.5977 27.6094 16.6914 27.5391 16.7539C27.4766 16.8164 27.3867 16.875 27.2695 16.9297C27.1523 16.9844 27.0117 17.0312 26.8477 17.0703C26.6914 17.1094 26.5195 17.1406 26.332 17.1641C26.1523 17.1875 25.9766 17.1992 25.8047 17.1992C25.25 17.1992 24.7773 17.1289 24.3867 16.9883C23.9961 16.8398 23.6758 16.6211 23.4258 16.332C23.1836 16.0352 23.0039 15.6641 22.8867 15.2188C22.7695 14.7656 22.7109 14.2344 22.7109 13.625V7.46094H17.4727V13.3438C17.4727 14.0703 17.5781 14.6211 17.7891 14.9961C18.0078 15.3633 18.3945 15.5469 18.9492 15.5469C19.1289 15.5469 19.2891 15.5312 19.4297 15.5C19.5703 15.4609 19.6953 15.4219 19.8047 15.3828C19.9141 15.3438 20.0078 15.3086 20.0859 15.2773C20.1641 15.2383 20.2344 15.2188 20.2969 15.2188C20.3359 15.2188 20.3711 15.2305 20.4023 15.2539C20.4414 15.2695 20.4688 15.3047 20.4844 15.3594C20.5078 15.4141 20.5273 15.4883 20.543 15.582C20.5586 15.6758 20.5664 15.793 20.5664 15.9336C20.5664 16.0664 20.5625 16.1719 20.5547 16.25C20.5469 16.3281 20.5352 16.4023 20.5195 16.4727C20.5117 16.5352 20.4922 16.5938 20.4609 16.6484C20.4375 16.6953 20.3945 16.7461 20.332 16.8008C20.2773 16.8477 20.1914 16.8984 20.0742 16.9531C19.957 17 19.8203 17.0391 19.6641 17.0703C19.5078 17.1094 19.3398 17.1406 19.1602 17.1641C18.9805 17.1875 18.8008 17.1992 18.6211 17.1992C18.0742 17.1992 17.6055 17.1289 17.2148 16.9883C16.8242 16.8398 16.5039 16.6211 16.2539 16.332C16.0039 16.0352 15.8203 15.6641 15.7031 15.2188C15.5938 14.7656 15.5391 14.2344 15.5391 13.625V7.46094H14.0625C13.9453 7.46094 13.8516 7.39844 13.7812 7.27344C13.7109 7.14844 13.6758 6.94531 13.6758 6.66406C13.6758 6.51562 13.6836 6.39062 13.6992 6.28906C13.7227 6.1875 13.75 6.10547 13.7812 6.04297C13.8125 5.97266 13.8516 5.92578 13.8984 5.90234C13.9531 5.87109 14.0117 5.85547 14.0742 5.85547H15.5391V3.34766C15.5391 3.29297 15.5508 3.24219 15.5742 3.19531C15.6055 3.14844 15.6562 3.10938 15.7266 3.07812C15.8047 3.03906 15.9062 3.01172 16.0312 2.99609C16.1562 2.98047 16.3125 2.97266 16.5 2.97266C16.6953 2.97266 16.8555 2.98047 16.9805 2.99609C17.1055 3.01172 17.2031 3.03906 17.2734 3.07812C17.3438 3.10938 17.3945 3.14844 17.4258 3.19531C17.457 3.24219 17.4727 3.29297 17.4727 3.34766V5.85547H22.7109V2.84375C22.7109 2.78125 22.7266 2.72656 22.7578 2.67969C22.7891 2.63281 22.8398 2.59766 22.9102 2.57422C22.9883 2.54297 23.0898 2.51953 23.2148 2.50391C23.3398 2.48047 23.4961 2.46875 23.6836 2.46875C23.8711 2.46875 24.0273 2.48047 24.1523 2.50391C24.2773 2.51953 24.375 2.54297 24.4453 2.57422C24.5234 2.59766 24.5781 2.63281 24.6094 2.67969C24.6406 2.72656 24.6562 2.78125 24.6562 2.84375V5.85547H27.3516C27.4141 5.85547 27.4688 5.87109 27.5156 5.90234C27.5625 5.92578 27.6016 5.97266 27.6328 6.04297C27.6719 6.10547 27.6992 6.1875 27.7148 6.28906C27.7305 6.39062 27.7383 6.51562 27.7383 6.66406C27.7383 6.94531 27.7031 7.14844 27.6328 7.27344C27.5625 7.39844 27.4727 7.46094 27.3633 7.46094H24.6562V13.3438C24.6562 14.0703 24.7617 14.6211 24.9727 14.9961C25.1836 15.3633 25.5664 15.5469 26.1211 15.5469C26.293 15.5469 26.4492 15.5312 26.5898 15.5C26.7383 15.4609 26.8672 15.4219 26.9766 15.3828C27.0859 15.3438 27.1797 15.3086 27.2578 15.2773C27.3438 15.2383 27.4141 15.2188 27.4688 15.2188C27.5156 15.2188 27.5547 15.2305 27.5859 15.2539C27.6172 15.2695 27.6406 15.3047 27.6562 15.3594C27.6797 15.4141 27.6992 15.4883 27.7148 15.582C27.7305 15.6758 27.7383 15.793 27.7383 15.9336ZM39.0586 10.9766C39.0586 11.2812 38.9805 11.5 38.8242 11.6328C38.6758 11.7578 38.5039 11.8203 38.3086 11.8203H31.3945C31.3945 12.4062 31.4531 12.9336 31.5703 13.4023C31.6875 13.8711 31.8828 14.2734 32.1562 14.6094C32.4297 14.9453 32.7852 15.2031 33.2227 15.3828C33.6602 15.5625 34.1953 15.6523 34.8281 15.6523C35.3281 15.6523 35.7734 15.6133 36.1641 15.5352C36.5547 15.4492 36.8906 15.3555 37.1719 15.2539C37.4609 15.1523 37.6953 15.0625 37.875 14.9844C38.0625 14.8984 38.2031 14.8555 38.2969 14.8555C38.3516 14.8555 38.3984 14.8711 38.4375 14.9023C38.4844 14.9258 38.5195 14.9648 38.543 15.0195C38.5664 15.0742 38.582 15.1523 38.5898 15.2539C38.6055 15.3477 38.6133 15.4648 38.6133 15.6055C38.6133 15.707 38.6094 15.7969 38.6016 15.875C38.5938 15.9453 38.582 16.0117 38.5664 16.0742C38.5586 16.1289 38.5391 16.1797 38.5078 16.2266C38.4844 16.2734 38.4492 16.3203 38.4023 16.3672C38.3633 16.4062 38.2383 16.4766 38.0273 16.5781C37.8164 16.6719 37.543 16.7656 37.207 16.8594C36.8711 16.9531 36.4805 17.0352 36.0352 17.1055C35.5977 17.1836 35.1289 17.2227 34.6289 17.2227C33.7617 17.2227 33 17.1016 32.3438 16.8594C31.6953 16.6172 31.1484 16.2578 30.7031 15.7812C30.2578 15.3047 29.9219 14.707 29.6953 13.9883C29.4688 13.2695 29.3555 12.4336 29.3555 11.4805C29.3555 10.5742 29.4727 9.76172 29.707 9.04297C29.9414 8.31641 30.2773 7.70312 30.7148 7.20312C31.1602 6.69531 31.6953 6.30859 32.3203 6.04297C32.9453 5.76953 33.6445 5.63281 34.418 5.63281C35.2461 5.63281 35.9492 5.76562 36.5273 6.03125C37.1133 6.29688 37.5938 6.65625 37.9688 7.10938C38.3438 7.55469 38.6172 8.08203 38.7891 8.69141C38.9688 9.29297 39.0586 9.9375 39.0586 10.625V10.9766ZM37.1133 10.4023C37.1367 9.38672 36.9102 8.58984 36.4336 8.01172C35.9648 7.43359 35.2656 7.14453 34.3359 7.14453C33.8594 7.14453 33.4414 7.23438 33.082 7.41406C32.7227 7.59375 32.4219 7.83203 32.1797 8.12891C31.9375 8.42578 31.75 8.77344 31.6172 9.17188C31.4844 9.5625 31.4102 9.97266 31.3945 10.4023H37.1133ZM51.0938 16.707C51.0938 16.7695 51.0781 16.8242 51.0469 16.8711C51.0156 16.9102 50.9648 16.9453 50.8945 16.9766C50.8242 17.0078 50.7266 17.0312 50.6016 17.0469C50.4766 17.0625 50.3203 17.0703 50.1328 17.0703C49.9375 17.0703 49.7773 17.0625 49.6523 17.0469C49.5273 17.0312 49.4297 17.0078 49.3594 16.9766C49.2891 16.9453 49.2383 16.9102 49.207 16.8711C49.1758 16.8242 49.1602 16.7695 49.1602 16.707V10.5312C49.1602 9.92969 49.1133 9.44531 49.0195 9.07812C48.9258 8.71094 48.7891 8.39453 48.6094 8.12891C48.4297 7.86328 48.1953 7.66016 47.9062 7.51953C47.625 7.37891 47.2969 7.30859 46.9219 7.30859C46.4375 7.30859 45.9531 7.48047 45.4688 7.82422C44.9844 8.16797 44.4766 8.67188 43.9453 9.33594V16.707C43.9453 16.7695 43.9297 16.8242 43.8984 16.8711C43.8672 16.9102 43.8164 16.9453 43.7461 16.9766C43.6758 17.0078 43.5781 17.0312 43.4531 17.0469C43.3281 17.0625 43.168 17.0703 42.9727 17.0703C42.7852 17.0703 42.6289 17.0625 42.5039 17.0469C42.3789 17.0312 42.2773 17.0078 42.1992 16.9766C42.1289 16.9453 42.0781 16.9102 42.0469 16.8711C42.0234 16.8242 42.0117 16.7695 42.0117 16.707V6.16016C42.0117 6.09766 42.0234 6.04688 42.0469 6.00781C42.0703 5.96094 42.1172 5.92188 42.1875 5.89062C42.2578 5.85156 42.3477 5.82812 42.457 5.82031C42.5664 5.80469 42.7109 5.79688 42.8906 5.79688C43.0625 5.79688 43.2031 5.80469 43.3125 5.82031C43.4297 5.82812 43.5195 5.85156 43.582 5.89062C43.6445 5.92188 43.6875 5.96094 43.7109 6.00781C43.7422 6.04688 43.7578 6.09766 43.7578 6.16016V7.55469C44.3516 6.89062 44.9414 6.40625 45.5273 6.10156C46.1211 5.78906 46.7188 5.63281 47.3203 5.63281C48.0234 5.63281 48.6133 5.75391 49.0898 5.99609C49.5742 6.23047 49.9648 6.54688 50.2617 6.94531C50.5586 7.34375 50.7695 7.8125 50.8945 8.35156C51.0273 8.88281 51.0938 9.52344 51.0938 10.2734V16.707ZM63.6562 16.707C63.6562 16.7695 63.6406 16.8242 63.6094 16.8711C63.5859 16.918 63.5391 16.957 63.4688 16.9883C63.4062 17.0117 63.3203 17.0312 63.2109 17.0469C63.1016 17.0625 62.9688 17.0703 62.8125 17.0703C62.6484 17.0703 62.5117 17.0625 62.4023 17.0469C62.293 17.0312 62.2031 17.0117 62.1328 16.9883C62.0625 16.957 62.0117 16.918 61.9805 16.8711C61.9492 16.8242 61.9336 16.7695 61.9336 16.707V15.3125C61.3789 15.9141 60.8008 16.3828 60.1992 16.7188C59.6055 17.0547 58.9531 17.2227 58.2422 17.2227C57.4688 17.2227 56.8086 17.0742 56.2617 16.7773C55.7148 16.4727 55.2695 16.0664 54.9258 15.5586C54.5898 15.043 54.3438 14.4414 54.1875 13.7539C54.0312 13.0586 53.9531 12.3281 53.9531 11.5625C53.9531 10.6562 54.0508 9.83984 54.2461 9.11328C54.4414 8.37891 54.7305 7.75391 55.1133 7.23828C55.4961 6.72266 55.9688 6.32812 56.5312 6.05469C57.1016 5.77344 57.7578 5.63281 58.5 5.63281C59.1172 5.63281 59.6797 5.76953 60.1875 6.04297C60.7031 6.30859 61.2109 6.70312 61.7109 7.22656V1.09766C61.7109 1.04297 61.7227 0.992188 61.7461 0.945312C61.7773 0.890625 61.832 0.851562 61.9102 0.828125C61.9883 0.796875 62.0859 0.773437 62.2031 0.757812C62.3281 0.734375 62.4844 0.722656 62.6719 0.722656C62.8672 0.722656 63.0273 0.734375 63.1523 0.757812C63.2773 0.773437 63.375 0.796875 63.4453 0.828125C63.5156 0.851562 63.5664 0.890625 63.5977 0.945312C63.6367 0.992188 63.6562 1.04297 63.6562 1.09766V16.707ZM61.7109 9.28906C61.1875 8.64062 60.6797 8.14844 60.1875 7.8125C59.7031 7.46875 59.1953 7.29688 58.6641 7.29688C58.1719 7.29688 57.7539 7.41406 57.4102 7.64844C57.0664 7.88281 56.7852 8.19141 56.5664 8.57422C56.3555 8.95703 56.1992 9.39062 56.0977 9.875C56.0039 10.3594 55.957 10.8516 55.957 11.3516C55.957 11.8828 55.9961 12.4023 56.0742 12.9102C56.1602 13.418 56.3047 13.8711 56.5078 14.2695C56.7109 14.6602 56.9805 14.9766 57.3164 15.2188C57.6523 15.4531 58.0742 15.5703 58.582 15.5703C58.8398 15.5703 59.0859 15.5352 59.3203 15.4648C59.5625 15.3945 59.8086 15.2773 60.0586 15.1133C60.3086 14.9492 60.5703 14.7383 60.8438 14.4805C61.1172 14.2148 61.4062 13.8906 61.7109 13.5078V9.28906ZM75.1758 16.7188C75.1758 16.8125 75.1445 16.8828 75.082 16.9297C75.0195 16.9766 74.9336 17.0117 74.8242 17.0352C74.7148 17.0586 74.5547 17.0703 74.3438 17.0703C74.1406 17.0703 73.9766 17.0586 73.8516 17.0352C73.7344 17.0117 73.6484 16.9766 73.5938 16.9297C73.5391 16.8828 73.5117 16.8125 73.5117 16.7188V15.6641C73.0508 16.1562 72.5352 16.5391 71.9648 16.8125C71.4023 17.0859 70.8047 17.2227 70.1719 17.2227C69.6172 17.2227 69.1133 17.1484 68.6602 17C68.2148 16.8594 67.832 16.6523 67.5117 16.3789C67.1992 16.1055 66.9531 15.7695 66.7734 15.3711C66.6016 14.9727 66.5156 14.5195 66.5156 14.0117C66.5156 13.418 66.6367 12.9023 66.8789 12.4648C67.1211 12.0273 67.4688 11.6641 67.9219 11.375C68.375 11.0859 68.9297 10.8711 69.5859 10.7305C70.2422 10.582 70.9805 10.5078 71.8008 10.5078H73.2539V9.6875C73.2539 9.28125 73.2109 8.92188 73.125 8.60938C73.0391 8.29688 72.8984 8.03906 72.7031 7.83594C72.5156 7.625 72.2695 7.46875 71.9648 7.36719C71.6602 7.25781 71.2852 7.20312 70.8398 7.20312C70.3633 7.20312 69.9336 7.26172 69.5508 7.37891C69.1758 7.48828 68.8438 7.61328 68.5547 7.75391C68.2734 7.88672 68.0352 8.01172 67.8398 8.12891C67.6523 8.23828 67.5117 8.29297 67.418 8.29297C67.3555 8.29297 67.3008 8.27734 67.2539 8.24609C67.207 8.21484 67.1641 8.16797 67.125 8.10547C67.0938 8.04297 67.0703 7.96484 67.0547 7.87109C67.0391 7.76953 67.0312 7.66016 67.0312 7.54297C67.0312 7.34766 67.043 7.19531 67.0664 7.08594C67.0977 6.96875 67.1641 6.85938 67.2656 6.75781C67.375 6.65625 67.5586 6.53906 67.8164 6.40625C68.0742 6.26562 68.3711 6.14062 68.707 6.03125C69.043 5.91406 69.4102 5.82031 69.8086 5.75C70.207 5.67188 70.6094 5.63281 71.0156 5.63281C71.7734 5.63281 72.418 5.71875 72.9492 5.89062C73.4805 6.0625 73.9102 6.31641 74.2383 6.65234C74.5664 6.98047 74.8047 7.39062 74.9531 7.88281C75.1016 8.375 75.1758 8.94922 75.1758 9.60547V16.7188ZM73.2539 11.9023H71.6016C71.0703 11.9023 70.6094 11.9492 70.2188 12.043C69.8281 12.1289 69.5039 12.2617 69.2461 12.4414C68.9883 12.6133 68.7969 12.8242 68.6719 13.0742C68.5547 13.3164 68.4961 13.5977 68.4961 13.918C68.4961 14.4648 68.668 14.9023 69.0117 15.2305C69.3633 15.5508 69.8516 15.7109 70.4766 15.7109C70.9844 15.7109 71.4531 15.582 71.8828 15.3242C72.3203 15.0664 72.7773 14.6719 73.2539 14.1406V11.9023ZM87.8203 16.707C87.8203 16.7695 87.8047 16.8242 87.7734 16.8711C87.7422 16.9102 87.6914 16.9453 87.6211 16.9766C87.5508 17.0078 87.4531 17.0312 87.3281 17.0469C87.2031 17.0625 87.0469 17.0703 86.8594 17.0703C86.6641 17.0703 86.5039 17.0625 86.3789 17.0469C86.2539 17.0312 86.1562 17.0078 86.0859 16.9766C86.0156 16.9453 85.9648 16.9102 85.9336 16.8711C85.9023 16.8242 85.8867 16.7695 85.8867 16.707V10.5312C85.8867 9.92969 85.8398 9.44531 85.7461 9.07812C85.6523 8.71094 85.5156 8.39453 85.3359 8.12891C85.1562 7.86328 84.9219 7.66016 84.6328 7.51953C84.3516 7.37891 84.0234 7.30859 83.6484 7.30859C83.1641 7.30859 82.6797 7.48047 82.1953 7.82422C81.7109 8.16797 81.2031 8.67188 80.6719 9.33594V16.707C80.6719 16.7695 80.6562 16.8242 80.625 16.8711C80.5938 16.9102 80.543 16.9453 80.4727 16.9766C80.4023 17.0078 80.3047 17.0312 80.1797 17.0469C80.0547 17.0625 79.8945 17.0703 79.6992 17.0703C79.5117 17.0703 79.3555 17.0625 79.2305 17.0469C79.1055 17.0312 79.0039 17.0078 78.9258 16.9766C78.8555 16.9453 78.8047 16.9102 78.7734 16.8711C78.75 16.8242 78.7383 16.7695 78.7383 16.707V6.16016C78.7383 6.09766 78.75 6.04688 78.7734 6.00781C78.7969 5.96094 78.8438 5.92188 78.9141 5.89062C78.9844 5.85156 79.0742 5.82812 79.1836 5.82031C79.293 5.80469 79.4375 5.79688 79.6172 5.79688C79.7891 5.79688 79.9297 5.80469 80.0391 5.82031C80.1562 5.82812 80.2461 5.85156 80.3086 5.89062C80.3711 5.92188 80.4141 5.96094 80.4375 6.00781C80.4688 6.04688 80.4844 6.09766 80.4844 6.16016V7.55469C81.0781 6.89062 81.668 6.40625 82.2539 6.10156C82.8477 5.78906 83.4453 5.63281 84.0469 5.63281C84.75 5.63281 85.3398 5.75391 85.8164 5.99609C86.3008 6.23047 86.6914 6.54688 86.9883 6.94531C87.2852 7.34375 87.4961 7.8125 87.6211 8.35156C87.7539 8.88281 87.8203 9.52344 87.8203 10.2734V16.707ZM98.9297 15.1016C98.9297 15.2344 98.9258 15.3516 98.918 15.4531C98.9102 15.5469 98.8945 15.6289 98.8711 15.6992C98.8555 15.7617 98.832 15.8203 98.8008 15.875C98.7773 15.9219 98.7148 15.9961 98.6133 16.0977C98.5195 16.1914 98.3555 16.3125 98.1211 16.4609C97.8867 16.6016 97.6211 16.7305 97.3242 16.8477C97.0352 16.957 96.7188 17.0469 96.375 17.1172C96.0312 17.1875 95.6758 17.2227 95.3086 17.2227C94.5508 17.2227 93.8789 17.0977 93.293 16.8477C92.707 16.5977 92.2148 16.2344 91.8164 15.7578C91.4258 15.2734 91.125 14.6836 90.9141 13.9883C90.7109 13.2852 90.6094 12.4766 90.6094 11.5625C90.6094 10.5234 90.7344 9.63281 90.9844 8.89062C91.2422 8.14062 91.5898 7.52734 92.0273 7.05078C92.4727 6.57422 92.9922 6.22266 93.5859 5.99609C94.1875 5.76172 94.8359 5.64453 95.5312 5.64453C95.8672 5.64453 96.1914 5.67578 96.5039 5.73828C96.8242 5.80078 97.1172 5.88281 97.3828 5.98438C97.6484 6.08594 97.8828 6.20312 98.0859 6.33594C98.2969 6.46875 98.4492 6.58203 98.543 6.67578C98.6367 6.76953 98.6992 6.84375 98.7305 6.89844C98.7695 6.95312 98.8008 7.01953 98.8242 7.09766C98.8477 7.16797 98.8633 7.25 98.8711 7.34375C98.8789 7.4375 98.8828 7.55469 98.8828 7.69531C98.8828 8 98.8477 8.21484 98.7773 8.33984C98.707 8.45703 98.6211 8.51562 98.5195 8.51562C98.4023 8.51562 98.2656 8.45312 98.1094 8.32812C97.9609 8.19531 97.7695 8.05078 97.5352 7.89453C97.3008 7.73828 97.0156 7.59766 96.6797 7.47266C96.3516 7.33984 95.9609 7.27344 95.5078 7.27344C94.5781 7.27344 93.8633 7.63281 93.3633 8.35156C92.8711 9.0625 92.625 10.0977 92.625 11.457C92.625 12.1367 92.6875 12.7344 92.8125 13.25C92.9453 13.7578 93.1367 14.1836 93.3867 14.5273C93.6367 14.8711 93.9414 15.1289 94.3008 15.3008C94.668 15.4648 95.0859 15.5469 95.5547 15.5469C96 15.5469 96.3906 15.4766 96.7266 15.3359C97.0625 15.1953 97.3516 15.043 97.5938 14.8789C97.8438 14.707 98.0508 14.5547 98.2148 14.4219C98.3867 14.2812 98.5195 14.2109 98.6133 14.2109C98.668 14.2109 98.7148 14.2266 98.7539 14.2578C98.793 14.2891 98.8242 14.3438 98.8477 14.4219C98.8789 14.4922 98.8984 14.5859 98.9062 14.7031C98.9219 14.8125 98.9297 14.9453 98.9297 15.1016ZM110.496 10.9766C110.496 11.2812 110.418 11.5 110.262 11.6328C110.113 11.7578 109.941 11.8203 109.746 11.8203H102.832C102.832 12.4062 102.891 12.9336 103.008 13.4023C103.125 13.8711 103.32 14.2734 103.594 14.6094C103.867 14.9453 104.223 15.2031 104.66 15.3828C105.098 15.5625 105.633 15.6523 106.266 15.6523C106.766 15.6523 107.211 15.6133 107.602 15.5352C107.992 15.4492 108.328 15.3555 108.609 15.2539C108.898 15.1523 109.133 15.0625 109.312 14.9844C109.5 14.8984 109.641 14.8555 109.734 14.8555C109.789 14.8555 109.836 14.8711 109.875 14.9023C109.922 14.9258 109.957 14.9648 109.98 15.0195C110.004 15.0742 110.02 15.1523 110.027 15.2539C110.043 15.3477 110.051 15.4648 110.051 15.6055C110.051 15.707 110.047 15.7969 110.039 15.875C110.031 15.9453 110.02 16.0117 110.004 16.0742C109.996 16.1289 109.977 16.1797 109.945 16.2266C109.922 16.2734 109.887 16.3203 109.84 16.3672C109.801 16.4062 109.676 16.4766 109.465 16.5781C109.254 16.6719 108.98 16.7656 108.645 16.8594C108.309 16.9531 107.918 17.0352 107.473 17.1055C107.035 17.1836 106.566 17.2227 106.066 17.2227C105.199 17.2227 104.438 17.1016 103.781 16.8594C103.133 16.6172 102.586 16.2578 102.141 15.7812C101.695 15.3047 101.359 14.707 101.133 13.9883C100.906 13.2695 100.793 12.4336 100.793 11.4805C100.793 10.5742 100.91 9.76172 101.145 9.04297C101.379 8.31641 101.715 7.70312 102.152 7.20312C102.598 6.69531 103.133 6.30859 103.758 6.04297C104.383 5.76953 105.082 5.63281 105.855 5.63281C106.684 5.63281 107.387 5.76562 107.965 6.03125C108.551 6.29688 109.031 6.65625 109.406 7.10938C109.781 7.55469 110.055 8.08203 110.227 8.69141C110.406 9.29297 110.496 9.9375 110.496 10.625V10.9766ZM108.551 10.4023C108.574 9.38672 108.348 8.58984 107.871 8.01172C107.402 7.43359 106.703 7.14453 105.773 7.14453C105.297 7.14453 104.879 7.23438 104.52 7.41406C104.16 7.59375 103.859 7.83203 103.617 8.12891C103.375 8.42578 103.188 8.77344 103.055 9.17188C102.922 9.5625 102.848 9.97266 102.832 10.4023H108.551ZM125.73 15.8516C125.824 16.1328 125.883 16.3555 125.906 16.5195C125.93 16.6836 125.898 16.8086 125.812 16.8945C125.727 16.9727 125.574 17.0195 125.355 17.0352C125.137 17.0586 124.836 17.0703 124.453 17.0703C124.055 17.0703 123.742 17.0625 123.516 17.0469C123.297 17.0391 123.129 17.0195 123.012 16.9883C122.895 16.9492 122.812 16.8984 122.766 16.8359C122.719 16.7734 122.68 16.6914 122.648 16.5898L121.629 13.543H115.934L114.973 16.5078C114.941 16.6172 114.898 16.7109 114.844 16.7891C114.797 16.8594 114.715 16.918 114.598 16.9648C114.488 17.0039 114.328 17.0312 114.117 17.0469C113.914 17.0625 113.645 17.0703 113.309 17.0703C112.949 17.0703 112.668 17.0586 112.465 17.0352C112.262 17.0117 112.121 16.957 112.043 16.8711C111.965 16.7773 111.938 16.6484 111.961 16.4844C111.984 16.3203 112.043 16.1016 112.137 15.8281L116.812 2.375C116.859 2.24219 116.914 2.13672 116.977 2.05859C117.039 1.97266 117.137 1.91016 117.27 1.87109C117.41 1.82422 117.602 1.79688 117.844 1.78906C118.086 1.77344 118.406 1.76562 118.805 1.76562C119.266 1.76562 119.633 1.77344 119.906 1.78906C120.18 1.79688 120.391 1.82422 120.539 1.87109C120.695 1.91016 120.805 1.97266 120.867 2.05859C120.938 2.14453 120.996 2.26172 121.043 2.41016L125.73 15.8516ZM118.77 4.73047H118.758L116.613 11.1758H120.914L118.77 4.73047ZM138.246 6.44141C138.246 7.29297 138.113 8.04688 137.848 8.70312C137.582 9.35938 137.195 9.91406 136.688 10.3672C136.18 10.8125 135.555 11.1523 134.812 11.3867C134.078 11.6211 133.211 11.7383 132.211 11.7383H130.945V16.5781C130.945 16.6562 130.918 16.7266 130.863 16.7891C130.816 16.8516 130.734 16.9023 130.617 16.9414C130.5 16.9805 130.344 17.0117 130.148 17.0352C129.953 17.0586 129.703 17.0703 129.398 17.0703C129.102 17.0703 128.852 17.0586 128.648 17.0352C128.453 17.0117 128.297 16.9805 128.18 16.9414C128.062 16.9023 127.98 16.8516 127.934 16.7891C127.887 16.7266 127.863 16.6562 127.863 16.5781V2.9375C127.863 2.57031 127.957 2.29687 128.145 2.11719C128.34 1.92969 128.594 1.83594 128.906 1.83594H132.48C132.84 1.83594 133.18 1.85156 133.5 1.88281C133.828 1.90625 134.219 1.96484 134.672 2.05859C135.125 2.14453 135.582 2.30859 136.043 2.55078C136.512 2.79297 136.91 3.10156 137.238 3.47656C137.566 3.84375 137.816 4.27734 137.988 4.77734C138.16 5.26953 138.246 5.82422 138.246 6.44141ZM135.023 6.66406C135.023 6.13281 134.93 5.69531 134.742 5.35156C134.555 5.00781 134.324 4.75391 134.051 4.58984C133.777 4.42578 133.488 4.32422 133.184 4.28516C132.887 4.23828 132.578 4.21484 132.258 4.21484H130.945V9.35938H132.328C132.82 9.35938 133.23 9.29297 133.559 9.16016C133.895 9.02734 134.168 8.84375 134.379 8.60938C134.59 8.36719 134.75 8.08203 134.859 7.75391C134.969 7.41797 135.023 7.05469 135.023 6.66406ZM151.02 6.44141C151.02 7.29297 150.887 8.04688 150.621 8.70312C150.355 9.35938 149.969 9.91406 149.461 10.3672C148.953 10.8125 148.328 11.1523 147.586 11.3867C146.852 11.6211 145.984 11.7383 144.984 11.7383H143.719V16.5781C143.719 16.6562 143.691 16.7266 143.637 16.7891C143.59 16.8516 143.508 16.9023 143.391 16.9414C143.273 16.9805 143.117 17.0117 142.922 17.0352C142.727 17.0586 142.477 17.0703 142.172 17.0703C141.875 17.0703 141.625 17.0586 141.422 17.0352C141.227 17.0117 141.07 16.9805 140.953 16.9414C140.836 16.9023 140.754 16.8516 140.707 16.7891C140.66 16.7266 140.637 16.6562 140.637 16.5781V2.9375C140.637 2.57031 140.73 2.29687 140.918 2.11719C141.113 1.92969 141.367 1.83594 141.68 1.83594H145.254C145.613 1.83594 145.953 1.85156 146.273 1.88281C146.602 1.90625 146.992 1.96484 147.445 2.05859C147.898 2.14453 148.355 2.30859 148.816 2.55078C149.285 2.79297 149.684 3.10156 150.012 3.47656C150.34 3.84375 150.59 4.27734 150.762 4.77734C150.934 5.26953 151.02 5.82422 151.02 6.44141ZM147.797 6.66406C147.797 6.13281 147.703 5.69531 147.516 5.35156C147.328 5.00781 147.098 4.75391 146.824 4.58984C146.551 4.42578 146.262 4.32422 145.957 4.28516C145.66 4.23828 145.352 4.21484 145.031 4.21484H143.719V9.35938H145.102C145.594 9.35938 146.004 9.29297 146.332 9.16016C146.668 9.02734 146.941 8.84375 147.152 8.60938C147.363 8.36719 147.523 8.08203 147.633 7.75391C147.742 7.41797 147.797 7.05469 147.797 6.66406Z" fill="#066FD1"/>
</svg>
